<svg xmlns="http://www.w3.org/2000/svg" width="22.154" height="24" viewBox="0 0 22.154 24"><defs><style>.a{fill:#1c656b;}</style></defs><path class="a" d="M24.808,4.1H21.115V2.25H19.269V4.1H11.885V2.25H10.038V4.1H6.346A1.851,1.851,0,0,0,4.5,5.942V24.4A1.851,1.851,0,0,0,6.346,26.25H24.808A1.851,1.851,0,0,0,26.654,24.4V5.942A1.851,1.851,0,0,0,24.808,4.1Zm0,20.308H6.346V11.481H24.808Zm0-14.769H6.346V5.942h3.692V7.788h1.846V5.942h7.385V7.788h1.846V5.942h3.692Z" transform="translate(-4.5 -2.25)"/></svg>